<?xml version="1.0" standalone="no"?>
<!DOCTYPE svg PUBLIC "-//W3C//DTD SVG 20010904//EN"
 "http://www.w3.org/TR/2001/REC-SVG-20010904/DTD/svg10.dtd">
<svg version="1.0" xmlns="http://www.w3.org/2000/svg"
 width="188.000000pt" height="188.000000pt" viewBox="0 0 188.000000 188.000000"
 preserveAspectRatio="xMidYMid meet">
<metadata>
Created by potrace 1.11, written by Peter Selinger 2001-2013
</metadata>
<g transform="translate(0.000000,188.000000) scale(0.100000,-0.100000)"
fill="#000000" stroke="none">
<path d="M0 940 l0 -940 194 0 194 0 11 48 c5 26 20 124 32 217 11 94 23 174
26 178 8 13 24 163 28 265 2 67 0 94 -10 100 -35 21 -64 137 -68 274 -1 43 -5
78 -10 78 -4 0 -12 11 -17 25 -5 14 -16 25 -25 25 -8 0 -15 6 -15 14 0 7 -7
19 -15 26 -9 7 -13 15 -11 18 3 2 12 -2 20 -11 26 -26 104 -10 136 27 15 19
47 21 52 4 3 -7 12 -9 22 -5 9 4 14 11 11 17 -3 5 3 10 14 10 17 0 19 -3 11
-17 -20 -36 -39 -93 -32 -97 4 -2 24 20 46 49 39 55 81 74 126 60 10 -3 21 -1
25 5 8 13 52 13 60 1 3 -5 -5 -12 -17 -14 -13 -2 1 -4 29 -4 29 0 53 1 53 4 0
2 -14 19 -32 38 -26 29 -38 35 -71 35 -35 0 -38 2 -27 16 11 12 10 18 -6 35
-20 19 -20 19 -52 -12 -37 -37 -35 -47 9 -41 21 3 30 1 25 -6 -4 -6 -13 -9
-20 -6 -8 3 -17 0 -21 -6 -5 -8 -11 -8 -21 1 -11 9 -17 9 -29 -1 -8 -6 -18 -9
-24 -6 -5 3 -11 0 -14 -6 -2 -7 -8 -10 -12 -6 -5 5 -1 16 8 26 10 10 17 23 17
28 0 13 65 63 105 79 18 8 36 19 40 24 3 6 15 7 29 1 17 -6 27 -4 38 10 19 22
132 43 173 32 47 -12 88 -4 81 16 -5 13 -3 12 9 -2 8 -11 15 -16 15 -12 0 5 7
3 16 -4 13 -11 19 -10 37 8 12 12 38 34 57 48 27 21 24 16 -12 -20 -52 -52
-51 -67 6 -82 15 -3 26 -13 26 -23 0 -9 9 -22 20 -29 11 -7 20 -19 20 -27 0
-8 3 -15 8 -15 4 0 12 -10 18 -23 6 -12 19 -37 29 -56 l18 -34 -29 -24 c-27
-21 -27 -23 -8 -23 16 0 22 -6 22 -24 0 -21 -3 -23 -18 -13 -14 8 -24 8 -42 0
-23 -12 -23 -12 7 -14 l30 -2 -35 -7 c-28 -6 -30 -8 -10 -9 34 -2 94 -33 98
-50 2 -11 0 -12 -10 -4 -7 6 -35 13 -63 17 -36 5 -46 4 -35 -3 9 -7 10 -11 3
-11 -6 0 -15 5 -18 10 -10 16 -102 60 -124 60 -11 0 -23 5 -26 10 -3 6 -1 10
4 10 6 0 11 10 10 23 0 12 -3 16 -6 10 -2 -7 -11 -13 -19 -13 -8 0 -14 -7 -14
-16 0 -8 -7 -22 -15 -30 -13 -14 -17 -13 -37 0 -19 14 -20 16 -4 16 10 0 16 6
14 13 -6 15 -58 22 -58 8 0 -6 5 -11 11 -11 5 0 7 -5 4 -10 -3 -5 -15 -10 -25
-10 -11 0 -34 -13 -53 -30 -49 -43 -79 -51 -144 -41 -43 6 -56 5 -60 -5 -7
-18 23 -64 41 -64 7 0 19 -6 25 -14 17 -21 151 -44 151 -26 0 4 14 13 30 19
17 5 44 20 61 31 37 27 79 20 114 -18 30 -32 32 -46 5 -37 -17 6 -20 2 -20
-29 0 -43 -10 -46 -32 -9 l-16 26 -23 -44 c-17 -32 -24 -39 -27 -26 -2 11 -9
16 -18 13 -9 -3 -12 -1 -9 4 3 6 2 10 -4 10 -13 0 -40 -51 -34 -67 2 -7 -3
-10 -14 -8 -10 2 -20 4 -23 4 -2 1 1 6 8 13 18 18 15 33 -4 17 -24 -20 -131
-23 -150 -4 -9 8 -28 15 -44 15 -23 0 -28 4 -24 18 5 14 3 14 -10 -2 -23 -28
-21 -31 27 -45 23 -7 53 -20 67 -28 13 -9 43 -16 65 -15 23 0 48 -3 55 -8 21
-13 3 -40 -27 -41 l-28 -1 30 -8 c56 -14 67 -12 55 10 -9 17 -8 19 7 13 10 -4
21 -11 26 -17 5 -8 10 -7 16 3 6 10 13 11 29 2 25 -13 64 -14 77 -2 6 5 21 12
35 16 20 6 16 1 -15 -23 -44 -33 -110 -101 -83 -86 9 5 32 24 52 41 35 32 36
33 86 22 36 -8 56 -18 67 -36 l17 -25 8 22 c5 14 14 20 23 16 8 -3 17 -1 20 5
4 6 21 1 43 -12 l37 -22 -29 31 c-29 31 -26 38 11 33 8 -1 10 5 7 14 -4 8 -1
15 6 15 7 0 10 -8 7 -20 -3 -11 -2 -22 3 -25 4 -2 8 -45 8 -93 1 -49 2 -95 4
-103 2 -11 -12 -14 -60 -15 -35 -1 -64 -3 -66 -5 -2 -2 -6 -17 -10 -34 -5 -24
-4 -26 4 -13 12 19 40 25 40 8 0 -5 7 -10 15 -10 8 0 15 -4 15 -10 0 -5 7 -7
15 -4 9 4 15 0 15 -9 0 -21 40 -10 41 12 0 9 5 3 10 -14 9 -31 -4 -83 -25 -97
-7 -5 -7 -8 2 -8 6 0 12 -8 12 -17 0 -15 2 -16 10 -3 5 8 11 12 13 10 2 -3 18
-24 35 -47 18 -23 42 -63 55 -90 12 -26 44 -85 71 -130 l49 -83 133 0 134 0 0
940 0 940 -940 0 -940 0 0 -940z m730 880 c-8 -5 -19 -10 -25 -10 -5 0 -3 5 5
10 8 5 20 10 25 10 6 0 3 -5 -5 -10z m289 -256 c2 -2 -34 -4 -80 -4 -89 0
-226 -26 -294 -55 -82 -36 -165 -108 -105 -92 11 3 17 1 14 -4 -14 -23 -203 0
-266 32 -10 5 -25 6 -33 2 -13 -4 -16 -1 -13 18 5 41 55 37 136 -10 37 -23 78
-41 91 -41 13 0 43 18 68 39 56 50 166 96 263 110 41 6 86 13 100 15 26 4 112
-4 119 -10z m-539 -188 c15 -3 26 -13 27 -23 1 -22 -59 -63 -93 -63 -22 0 -23
3 -14 20 9 18 8 20 -15 20 -14 0 -25 -5 -25 -12 0 -6 -2 -9 -5 -6 -3 2 0 19 6
36 13 38 41 44 119 28z m880 -140 c0 -2 -7 -6 -15 -10 -8 -3 -15 -1 -15 4 0 6
7 10 15 10 8 0 15 -2 15 -4z m-4 -82 c10 -8 13 -12 6 -9 -8 4 -26 11 -40 15
-22 7 -23 8 -6 9 11 1 29 -6 40 -15z m-2 -128 l16 -25 -30 10 c-24 9 -27 13
-17 24 7 8 13 14 13 15 1 0 9 -11 18 -24z m-304 -96 c0 -5 -2 -10 -4 -10 -3 0
-8 5 -11 10 -3 6 -1 10 4 10 6 0 11 -4 11 -10z m260 -39 c0 -5 -7 -14 -15 -21
-12 -10 -13 -16 -4 -26 9 -11 5 -14 -22 -16 -19 0 -46 0 -61 1 -15 1 -36 -3
-47 -9 -17 -9 -20 -8 -15 5 4 8 24 18 45 21 24 4 39 12 39 21 0 8 5 11 10 8 6
-3 15 -3 21 1 8 4 7 9 -2 15 -10 6 -4 9 19 9 17 0 32 -4 32 -9z"/>
<path d="M770 1437 c0 -8 9 -22 20 -32 11 -10 20 -13 20 -7 0 7 -4 12 -10 12
-5 0 -10 6 -10 14 0 8 -4 18 -10 21 -5 3 -10 0 -10 -8z"/>
<path d="M1099 1369 c-16 -16 -18 -24 -10 -32 9 -9 14 -8 20 2 6 9 15 11 27 6
18 -8 18 -8 2 -12 -19 -5 -25 -23 -8 -23 6 0 27 8 48 17 20 9 46 20 57 23 18
6 17 8 -12 23 -45 24 -98 22 -124 -4z"/>
<path d="M448 1216 c-10 -7 -18 -16 -18 -19 0 -12 28 4 34 19 6 17 6 17 -16 0z"/>
<path d="M640 1043 c-8 -4 -22 -15 -32 -25 -11 -13 -17 -15 -20 -7 -3 9 -9 9
-24 1 -18 -10 -18 -11 6 -20 20 -8 29 -6 44 10 10 11 26 18 35 15 10 -2 26 2
36 9 10 8 14 14 8 14 -6 0 -17 2 -25 4 -7 3 -20 2 -28 -1z"/>
<path d="M608 783 c7 -3 16 -2 19 1 4 3 -2 6 -13 5 -11 0 -14 -3 -6 -6z"/>
<path d="M614 745 c4 -39 39 -59 78 -46 43 15 92 14 135 -4 55 -23 63 -18 14
11 -53 32 -127 53 -168 47 -17 -3 -34 0 -37 6 -13 20 -25 12 -22 -14z"/>
<path d="M525 740 c-3 -5 1 -10 9 -10 8 0 18 5 21 10 3 6 -1 10 -9 10 -8 0
-18 -4 -21 -10z"/>
<path d="M995 644 c-27 -23 -36 -25 -95 -20 -61 5 -66 4 -67 -15 -2 -22 -29
-48 -51 -49 -17 0 -11 -32 7 -38 10 -3 12 0 8 12 -4 9 -2 16 3 16 6 0 10 -5
10 -10 0 -6 17 -1 37 10 45 24 62 25 69 5 3 -8 21 -17 40 -21 43 -8 47 -14 23
-43 -17 -20 -21 -22 -36 -10 -9 8 -24 13 -35 11 -10 -2 -18 2 -18 7 0 19 -28
12 -44 -11 -15 -21 -14 -24 26 -65 l42 -42 31 19 c18 11 39 20 47 20 8 0 23
16 34 35 10 19 21 30 24 25 4 -6 14 -5 25 4 18 13 17 14 -10 14 -19 0 -35 8
-47 23 -10 13 -22 29 -28 36 -15 18 4 25 36 13 15 -6 29 -8 32 -6 3 3 -3 8
-12 12 -17 7 -52 64 -39 64 27 -1 52 -15 62 -36 9 -21 18 -24 59 -24 46 0 72
12 72 35 0 8 -150 57 -170 55 -3 0 -18 -12 -35 -26z m-36 -61 c0 -25 -1 -25
-8 -8 -5 11 -7 23 -4 28 8 14 13 7 12 -20z m-69 7 c0 -5 -5 -10 -11 -10 -5 0
-7 5 -4 10 3 6 8 10 11 10 2 0 4 -4 4 -10z m40 -10 c0 -5 -2 -10 -4 -10 -3 0
-8 5 -11 10 -3 6 -1 10 4 10 6 0 11 -4 11 -10z"/>
<path d="M530 611 c0 -17 18 -21 24 -6 3 9 0 15 -9 15 -8 0 -15 -4 -15 -9z"/>
<path d="M738 383 c-16 -2 -28 -11 -28 -18 0 -22 18 -27 29 -8 7 12 10 13 11
4 0 -9 6 -11 18 -6 9 4 33 9 52 12 47 5 51 13 7 13 -19 0 -41 2 -49 3 -7 2
-25 2 -40 0z"/>
<path d="M1040 332 c19 -11 42 -18 50 -17 8 1 20 -7 27 -19 l12 -21 1 23 c0
12 5 22 12 22 22 0 -1 12 -29 14 -15 2 -46 6 -68 10 l-40 8 35 -20z"/>
<path d="M1172 310 c0 -14 2 -19 5 -12 2 6 2 18 0 25 -3 6 -5 1 -5 -13z"/>
<path d="M1051 184 c0 -11 3 -14 6 -6 3 7 2 16 -1 19 -3 4 -6 -2 -5 -13z"/>
<path d="M932 20 c0 -14 2 -19 5 -12 2 6 2 18 0 25 -3 6 -5 1 -5 -13z"/>
</g>
</svg>
